<?xml version="1.0" encoding="iso-8859-1"?>
<!-- Generator: Adobe Illustrator 17.0.0, SVG Export Plug-In . SVG Version: 6.00 Build 0)  -->
<!DOCTYPE svg PUBLIC "-//W3C//DTD SVG 1.1//EN" "http://www.w3.org/Graphics/SVG/1.1/DTD/svg11.dtd">
<svg version="1.1" id="Layer_1" xmlns="http://www.w3.org/2000/svg" xmlns:xlink="http://www.w3.org/1999/xlink" x="0px" y="0px"
	 width="492px" height="512px" viewBox="-49 141 492 512" style="enable-background:new -49 141 492 512;" xml:space="preserve">
<g>
	<path style="fill:#CCCCCC;" d="M141.533,183.667H98.867c-5.12,0-8.533-3.413-8.533-8.533c0-5.12,3.413-8.533,8.533-8.533h42.667
		c5.12,0,8.533,3.413,8.533,8.533C150.067,180.253,146.653,183.667,141.533,183.667z"/>
	<path style="fill:#CCCCCC;" d="M73.267,183.667h-8.533c-5.12,0-8.533-3.413-8.533-8.533c0-5.12,3.413-8.533,8.533-8.533h8.533
		c5.12,0,8.533,3.413,8.533,8.533C81.8,180.253,78.387,183.667,73.267,183.667z"/>
	<path style="fill:#CCCCCC;" d="M-37.667,243.4c-5.12,0-8.533-3.413-8.533-8.533v-8.533c0-5.12,3.413-8.533,8.533-8.533
		s8.533,3.413,8.533,8.533v8.533C-29.133,239.987-32.547,243.4-37.667,243.4z"/>
	<path style="fill:#CCCCCC;" d="M-37.667,277.533c-5.12,0-8.533-3.413-8.533-8.533v-8.533c0-5.12,3.413-8.533,8.533-8.533
		s8.533,3.413,8.533,8.533V269C-29.133,274.12-32.547,277.533-37.667,277.533z"/>
	<path style="fill:#CCCCCC;" d="M-37.667,311.667c-5.12,0-8.533-3.413-8.533-8.533V294.6c0-5.12,3.413-8.533,8.533-8.533
		s8.533,3.413,8.533,8.533v8.533C-29.133,308.253-32.547,311.667-37.667,311.667z"/>
	<path style="fill:#CCCCCC;" d="M107.4,644.467c-18.773,0-34.133-15.36-34.133-34.133c0-18.773,15.36-34.133,34.133-34.133
		s34.133,15.36,34.133,34.133C141.533,629.107,126.173,644.467,107.4,644.467z M107.4,593.267c-9.387,0-17.067,7.68-17.067,17.067
		S98.013,627.4,107.4,627.4s17.067-7.68,17.067-17.067S116.787,593.267,107.4,593.267z"/>
	<path style="fill:#CCCCCC;" d="M406.067,525H107.4c-18.773,0-34.133-15.36-34.133-34.133v-204.8
		c0-18.773,15.36-34.133,34.133-34.133h298.667c18.773,0,34.133,15.36,34.133,34.133v204.8C440.2,509.64,424.84,525,406.067,525z
		 M107.4,269c-9.387,0-17.067,7.68-17.067,17.067v204.8c0,9.387,7.68,17.067,17.067,17.067h298.667
		c9.387,0,17.067-7.68,17.067-17.067v-204.8c0-9.387-7.68-17.067-17.067-17.067H107.4z"/>
	<path style="fill:#CCCCCC;" d="M431.667,362.867H81.8c-5.12,0-8.533-3.413-8.533-8.533v-51.2c0-5.12,3.413-8.533,8.533-8.533
		h349.867c5.12,0,8.533,3.413,8.533,8.533v51.2C440.2,359.453,436.787,362.867,431.667,362.867z M90.333,345.8h332.8v-34.133h-332.8
		V345.8z"/>
	<path style="fill:#CCCCCC;" d="M397.533,490.867H286.6c-5.12,0-8.533-3.413-8.533-8.533V422.6c0-5.12,3.413-8.533,8.533-8.533
		h110.933c5.12,0,8.533,3.413,8.533,8.533v59.733C406.067,487.453,402.653,490.867,397.533,490.867z M295.133,473.8H389v-42.667
		h-93.867V473.8z"/>
	<path style="fill:#CCCCCC;" d="M158.6,405.533h-42.667c-5.12,0-8.533-3.413-8.533-8.533c0-5.12,3.413-8.533,8.533-8.533H158.6
		c5.12,0,8.533,3.413,8.533,8.533C167.133,402.12,163.72,405.533,158.6,405.533z"/>
	<path style="fill:#CCCCCC;" d="M243.08,405.533h-55.467c-5.12,0-8.533-3.413-8.533-8.533c0-5.12,3.413-8.533,8.533-8.533h55.467
		c5.12,0,8.533,3.413,8.533,8.533C251.613,402.12,248.2,405.533,243.08,405.533z"/>
	<path style="fill:#CCCCCC;" d="M200.413,439.667h-84.48c-5.12,0-8.533-3.413-8.533-8.533c0-5.12,3.413-8.533,8.533-8.533h84.48
		c5.12,0,8.533,3.413,8.533,8.533C208.947,436.253,204.68,439.667,200.413,439.667z"/>
	<path style="fill:#CCCCCC;" d="M243.08,439.667h-16.213c-5.12,0-8.533-3.413-8.533-8.533c0-5.12,3.413-8.533,8.533-8.533h16.213
		c5.12,0,8.533,3.413,8.533,8.533C251.613,436.253,248.2,439.667,243.08,439.667z"/>
	<path style="fill:#CCCCCC;" d="M252.467,584.733H-37.667V192.2h290.133V269H107.4c-9.387,0-17.067,7.68-17.067,17.067v204.8
		c0,9.387,7.68,17.067,17.067,17.067h145.067V584.733z M-20.6,567.667h256V525h-128c-18.773,0-34.133-15.36-34.133-34.133v-204.8
		c0-18.773,15.36-34.133,34.133-34.133h128v-42.667h-256V567.667z"/>
	<path style="fill:#CCCCCC;" d="M218.333,653H-3.533c-18.773,0-34.133-15.36-34.133-34.133V175.133
		c0-18.773,15.36-34.133,34.133-34.133h221.867c18.773,0,34.133,15.36,34.133,34.133V269H107.4c-9.387,0-17.067,7.68-17.067,17.067
		v204.8c0,9.387,7.68,17.067,17.067,17.067h145.067v110.933C252.467,637.64,237.107,653,218.333,653z M-3.533,158.067
		c-9.387,0-17.067,7.68-17.067,17.067v443.733c0,9.387,7.68,17.067,17.067,17.067h221.867c9.387,0,17.067-7.68,17.067-17.067V525
		h-128c-18.773,0-34.133-15.36-34.133-34.133v-204.8c0-18.773,15.36-34.133,34.133-34.133h128v-76.8
		c0-9.387-7.68-17.067-17.067-17.067H-3.533z"/>
</g>
</svg>
